<svg version="1.2" xmlns="http://www.w3.org/2000/svg" viewBox="0 0 5500 4000" width="1100" height="800">
	<title>infinity</title>
	<style>
		.s0 { fill: #000000 } 
	</style>
	<g id="Layer 1">
		<g id="&lt;Group&gt;">
			<g id="&lt;Group&gt;">
				<g id="&lt;Group&gt;">
				</g>
				<g id="&lt;Group&gt;">
					<g id="&lt;Group&gt;">
					</g>
				</g>
				<g id="&lt;Group&gt;">
				</g>
				<g id="&lt;Group&gt;">
				</g>
				<g id="&lt;Group&gt;">
				</g>
				<g id="&lt;Group&gt;">
				</g>
				<g id="&lt;Group&gt;">
				</g>
				<g id="&lt;Group&gt;">
				</g>
				<g id="&lt;Group&gt;">
				</g>
				<g id="&lt;Group&gt;">
					<g id="&lt;Group&gt;">
					</g>
					<g id="&lt;Group&gt;">
						<g id="&lt;Group&gt;">
							<g id="&lt;Group&gt;">
							</g>
						</g>
					</g>
				</g>
				<g id="&lt;Group&gt;">
				</g>
				<g id="&lt;Group&gt;">
				</g>
				<path id="&lt;Compound Path&gt;" class="s0" d="m4343 1896c-7.1-54.5-19.7-108.4-38-160.4-18.2-51.9-41.9-102.1-70.6-149.2-28.6-47.1-62.2-91.2-99.7-131.1-37.4-40-79-76.2-124.1-107.9-45-31.7-93.5-58.7-144.2-80.4-50.6-21.6-103.5-38-157.5-48.8-107.9-21.5-220-20.1-327.4 3.5-53.8 11.8-106.3 29.3-156.6 51.9-50.2 22.7-98.1 50.7-142.5 83.3q-16.5 12.5-32.7 25.2l-15.6 13.4-7.8 6.7-3.9 3.4-2 1.7q-0.9 0.8-2 1.8-8.3 7.8-16.5 15.7l-8.2 7.9-4.1 4-2 1.9c-0.8 0.8-1.1 1.2-1.6 1.7l-20.8 22.7-83.3 90.8-66.8 72.8 46.9 50.1 69.5-75.7 83.2-90.7 20.8-22.7c0.7-0.8 2.1-2.1 3.3-3.3l3.6-3.5 7.3-7 14.7-14c1.3-1.2 2.4-2.1 3.6-3.2l3.6-3.1 7.1-6.1 14.3-12.3q14.9-11.6 29.9-23.1c40.5-29.7 84.3-55.3 130.2-76 45.9-20.7 94-36.6 143.1-47.4 98.2-21.6 200.7-22.9 299.4-3.2 49.3 9.8 97.6 24.8 143.9 44.6 46.4 19.8 90.6 44.4 131.8 73.4 41.2 28.9 79.2 62.1 113.5 98.7 34.3 36.6 65 76.8 91.1 119.9 26.2 43 47.9 88.8 64.6 136.3 16.6 47.5 28.2 96.7 34.7 146.6 13 99.6 5.2 201.9-22.8 298.5-27.9 96.8-76.9 187.5-141.6 264.4-32.4 38.4-68.5 73.4-108 104.5-39.6 31.1-82.4 58.1-127.6 80.4-90.4 44.6-189.9 70.1-290.3 74.3-100.4 4.3-201.7-12.3-295.6-48.7-46.9-18.2-92-41.4-134.2-68.9-2.7-1.6-5.2-3.5-7.8-5.3l-7.7-5.4-15.5-10.8c-10.1-7.5-20-15.3-29.9-23-9.6-8.1-19.1-16.3-28.6-24.5-9.9-9.2-19.6-18.6-29.3-28l-239.5-261.1-46.4-50.6-30.6-33.3-46.4-50.6-30.5-33.3-46.5-50.7-30.5-33.3-46.4-50.6-146.9-160.1-83-90.5-20.7-22.6c-1-1.1-1.5-1.4-2.1-2.1l-2-1.7-3.8-3.6q-3.8-3.5-7.5-7.2l-17.9-15.4-18.6-14.4c-50.8-37.3-109.3-63.6-170.9-77.1-30.8-6.8-62.3-10.4-93.9-10.8-31.5-0.3-63.2 2.5-94.1 8.7-61.9 12.4-120.8 37.6-172.3 73.8-25.8 18.1-49.7 39-71.4 62.1-21.6 23.1-40.8 48.2-57.1 75.1-16.4 26.9-29.9 55.4-40.4 85.1-10.4 29.7-17.6 60.6-21.7 91.9-8.1 62.6-3.2 126.9 14.3 187.4 8.7 30.3 20.7 59.5 35.6 87.2 14.8 27.7 32.6 53.9 52.9 78 20.4 24.2 43.3 46.4 68.1 65.9 24.8 19.4 51.5 36.3 79.7 50.2 56.3 27.8 118.7 43.9 181.8 46.5 63.1 2.7 126.7-7.8 185.4-30.5 56.8-22 109-55.6 152.9-98.5q1.3-1.3 2.6-2.5l1.5-1.7 182.3-198.7-46.9-50.1-186.1 202.9c-37.8 37.1-82.3 65.9-131.1 84.8-49.8 19.3-103.9 28.2-157.6 25.9-26.9-1-53.6-5.1-79.5-11.7-26-6.7-51.1-16-75.1-27.8-23.9-11.8-46.5-26.1-67.6-42.6-21.1-16.6-40.7-35.6-58-56.1-17.3-20.6-32.4-42.8-45-66.3-12.6-23.5-22.8-48.3-30.2-74-14.9-51.4-19-106.2-12.1-159.5 3.4-26.6 9.6-52.8 18.4-78.1 8.9-25.2 20.4-49.4 34.3-72.2 13.8-22.8 30.1-44.1 48.6-63.8 18.5-19.8 38.9-37.6 60.7-52.9 43.7-30.7 93.7-52.1 146.3-62.6 26.3-5.4 53.2-7.7 80.1-7.4 26.9 0.3 53.7 3.4 79.9 9.1 52.4 11.5 101.9 33.8 145 65.4q7.9 6.2 15.9 12.4l7.6 6.6 3.9 3.2 1.9 1.7 1 0.8c0.3 0.3 0.6 0.5 0.8 0.7q2.8 2.8 5.7 5.5l2.9 2.7 1.5 1.3 0.8 0.6c0.1 0.1 0.6 0.7 1.1 1.2l20.7 22.6 83 90.4 149.8 163.4 46.5 50.7 30.5 33.3 46.4 50.6 30.6 33.3 46.4 50.6 30.5 33.3 46.5 50.6 236.4 257.8c10.9 10.6 21.9 21.2 32.9 31.5 10.4 9 20.8 18 31.3 26.8 10.9 8.5 21.7 17 32.7 25.2l16.9 11.8 8.5 5.9c2.8 2 5.6 4 8.6 5.8 46.1 30.1 95.5 55.4 146.9 75.4 102.7 39.9 213.5 58 323.2 53.3 109.8-4.6 218.8-32.5 317.7-81.3 49.4-24.4 96.3-54 139.6-88 43.2-34 82.7-72.2 118.1-114.2 70.8-84.1 124.4-183.5 154.9-289.3 30.7-105.8 39.2-217.6 24.9-326.6zm-2868.6-62.7c11.5-32.6 26.4-64 44.4-93.6 18-29.5 39-57.2 62.8-82.5 23.7-25.4 50-48.3 78.3-68.1 56.6-39.9 121.5-67.6 189.4-81.1 34-6.9 68.7-10 103.4-9.6 34.6 0.4 69.2 4.4 103.1 11.8 67.6 14.8 132 43.8 187.8 84.8l20.5 15.9 19.7 16.9 8.7 8.3 4.4 4.1 2.2 2.1c0.7 0.7 1.4 1.2 2.3 2.3l20.7 22.6 83 90.4 144.9 158 46.4 50.6 30.6 33.3 46.4 50.7 30.5 33.3 46.5 50.6 30.5 33.3 46.5 50.6 241.4 263.2c8.9 8.7 17.9 17.3 27 25.8 8.9 7.7 17.8 15.4 26.8 23 9.3 7.2 18.6 14.5 28 21.6l14.6 10.1 7.2 5.1c2.5 1.7 4.8 3.4 7.4 4.9 39.5 25.8 81.8 47.5 125.8 64.6 88.1 34.2 183.1 49.8 277.3 45.7 94.3-3.9 187.7-27.9 272.4-69.7 42.4-20.9 82.6-46.2 119.6-75.4 37.1-29.1 71.1-62 101.4-98.1 60.8-72.1 106.7-157.2 132.9-247.9 26.3-90.7 33.5-186.7 21.3-280.2-6.1-46.8-16.9-93-32.5-137.5-15.7-44.6-36-87.5-60.6-127.9-24.5-40.4-53.2-78.1-85.5-112.5-32.1-34.3-67.9-65.4-106.5-92.6-38.6-27.1-80.1-50.2-123.5-68.8-43.5-18.6-88.8-32.6-135.1-41.9-92.5-18.5-188.8-17.2-280.9 3-46.1 10.2-91.2 25.1-134.2 44.5-43.1 19.5-84.1 43.4-122.2 71.3-9.4 7.2-18.7 14.4-28 21.7-9 7.7-17.9 15.2-26.8 23.1l-13.5 12.9-6.8 6.4-3.3 3.2c-1.1 1.1-2.4 2.3-3.1 3.2l-20.8 22.6-83.1 90.6-71.2 77.6 46.9 50.1 73.9-80.5 82.9-90.5 20.8-22.6c0.8-0.9 1.9-1.9 2.8-2.8l2.9-2.8 5.9-5.6 11.7-11.1c8-7 16.1-13.9 24.1-20.8l25.2-19.5c34.3-25.1 71.1-46.6 109.9-64.1 38.7-17.5 79.2-30.9 120.7-40 82.9-18.2 169.6-19.4 252.9-2.7 83.3 16.6 163.1 50.6 232.6 99.5 69.4 48.9 128.7 112 172.8 184.6 22.1 36.3 40.4 74.9 54.5 115 14 40.1 23.8 81.6 29.3 123.7 10.9 84.3 4.4 170.7-19.3 252.3-23.5 81.6-64.7 158-119.4 223-27.4 32.4-58 62.1-91.4 88.3-33.4 26.3-69.5 49-107.6 67.8-76.1 37.6-160.2 59.2-245 62.8-84.8 3.6-170.4-10.5-249.6-41.2-39.6-15.4-77.6-34.9-113.2-58.1-2.2-1.3-4.4-2.9-6.6-4.4l-6.5-4.6-13.1-9.1c-8.5-6.4-16.8-12.9-25.2-19.4-8.1-6.9-16.1-13.8-24.2-20.7l-23.4-22.3-244.4-266.5-46.4-50.6-30.6-33.3-46.4-50.7-30.6-33.3-46.4-50.6-30.5-33.3-46.5-50.6-141.9-154.7-82.9-90.5-20.8-22.6c-0.8-1-1.7-1.7-2.6-2.6l-2.6-2.5-5.3-5-10.5-10c-7.4-6.4-14.9-12.8-22.4-19.2l-23.3-18.1c-63.5-46.6-136.7-79.6-213.6-96.5-76.9-16.8-157.3-17.9-234.5-2.5-77.2 15.4-151.1 47-215.4 92.3-64.4 45.2-119.5 103.9-160.3 171.1-20.5 33.6-37.4 69.4-50.5 106.5-13 37.1-22 75.6-27.1 114.7-10.1 78-4.1 158.2 17.8 233.8 21.8 75.6 60 146.4 110.7 206.6 25.4 30.1 53.8 57.6 84.7 81.9 31 24.4 64.4 45.5 99.7 62.9 70.6 34.8 148.4 54.8 227.1 58.1 78.7 3.3 158-9.7 231.3-38.2 36.7-14.2 71.9-32.2 104.9-53.8 32.6-21.3 63.1-46 90.8-73.6q0.2-0.2 0.4-0.4l0.2-0.3 179.8-196-46.9-50.1-182.3 198.8c-48.9 48.7-107.6 86.8-171.6 111.6-64.5 25.1-134.4 36.5-203.6 33.6-69.3-2.9-137.8-20.6-199.8-51.1-31-15.3-60.4-33.9-87.6-55.3-27.3-21.3-52.4-45.7-74.7-72.2-44.6-53-78.2-115.1-97.3-181.6-19.3-66.5-24.7-137.1-15.7-205.9 4.4-34.3 12.4-68.2 23.8-100.9zm2462.7 488.4c-22.3 26.5-47.4 50.9-74.6 72.2-27.2 21.4-56.6 40-87.6 55.3-62 30.5-130.5 48.2-199.8 51.1-69.3 2.9-139.1-8.5-203.6-33.6-32.3-12.5-63.2-28.3-92.2-47.2-1.8-1.1-3.6-2.4-5.3-3.7l-5.3-3.7-10.7-7.4c-6.9-5.2-13.7-10.6-20.6-15.8l-19.7-16.9c-5.8-5.6-11.6-11.1-17.5-16.6l-249.5-271.9-46.4-50.7-30.5-33.2-46.5-50.7-30.5-33.3-46.4-50.6-30.6-33.3-46.4-50.6-136.9-149.3-83-90.4-20.7-22.6c-0.8-0.9-2.1-2.1-3.1-3.2l-3.4-3.2-6.7-6.4-13.6-12.9c-8.9-7.9-17.8-15.4-26.8-23.1-9.3-7.3-18.6-14.5-28-21.7-38-27.9-79.1-51.8-122.1-71.3-43.1-19.4-88.2-34.3-134.2-44.5-92.2-20.2-188.4-21.5-281-3-46.3 9.3-91.6 23.3-135 41.9-43.4 18.6-84.9 41.7-123.6 68.8-38.6 27.2-74.3 58.3-106.5 92.6-32.2 34.4-61 72.1-85.5 112.5-24.5 40.4-44.9 83.3-60.5 127.9-15.6 44.5-26.5 90.7-32.6 137.5-12.2 93.5-4.9 189.5 21.4 280.2 26.1 90.7 72 175.8 132.8 247.9 30.4 36.1 64.3 69 101.4 98.1 37.1 29.2 77.3 54.5 119.6 75.4 84.8 41.8 178.2 65.8 272.4 69.7 94.2 4.1 189.2-11.5 277.3-45.7 44-17.1 86.3-38.8 125.9-64.6 39.5-25.8 76.3-55.8 109.6-89.1l2.7-2.8 174.6-190.4-46.9-50.1-178.1 194.2-0.7 0.7c-30 30.1-63.1 57-98.7 80.2-35.6 23.2-73.6 42.7-113.2 58.1-79.2 30.7-164.7 44.8-249.6 41.2-84.8-3.6-168.8-25.2-245-62.8-38.1-18.8-74.2-41.5-107.6-67.8-33.4-26.2-64-55.9-91.3-88.3-54.7-65-95.9-141.4-119.5-223-23.7-81.6-30.2-168-19.2-252.3 5.4-42.1 15.2-83.6 29.3-123.7 14.1-40.1 32.3-78.7 54.4-115 44.2-72.6 103.4-135.7 172.9-184.6 69.4-48.9 149.3-82.9 232.5-99.5 83.3-16.7 170-15.5 253 2.7 41.4 9.1 82 22.5 120.7 40 38.7 17.5 75.6 39 109.8 64.1l25.2 19.5c8 6.9 16.1 13.8 24.1 20.8l11.8 11.1 5.8 5.6 2.9 2.8c1 0.9 2 1.9 2.8 2.8l20.8 22.6 82.9 90.5 140 152.5 46.4 50.6 30.5 33.3 46.5 50.7 30.5 33.3 46.4 50.6 30.6 33.3 46.4 50.6 246.4 268.7 21.1 20 22.4 19.2c7.8 5.9 15.5 12.1 23.4 18l12.1 8.4 6.1 4.2c2 1.4 4 2.9 6.1 4.1 32.9 21.6 68.1 39.6 104.8 53.8 73.4 28.5 152.7 41.5 231.3 38.2 78.7-3.3 156.6-23.3 227.1-58.1 35.3-17.4 68.8-38.5 99.7-62.9 30.9-24.3 59.4-51.8 84.7-81.9 50.7-60.2 88.9-131 110.7-206.6 21.9-75.6 28-155.8 17.8-233.8-5.1-39.1-14.1-77.6-27.1-114.7-13.1-37.1-30-72.9-50.4-106.5-40.9-67.2-95.9-125.9-160.3-171.1-64.4-45.3-138.3-76.9-215.5-92.3-77.2-15.4-157.6-14.3-234.4 2.5-76.9 16.9-150.2 49.9-213.7 96.5l-23.3 18.1c-7.4 6.4-15 12.8-22.3 19.2l-10.6 10-5.2 5-2.7 2.5c-0.8 0.9-1.7 1.6-2.6 2.6l-20.7 22.6-83 90.5-75.5 82.3 46.9 50.1 78.2-85.2 82.8-90.4 20.7-22.5c1-1.1 1.6-1.6 2.4-2.3l2.2-2.1 4.4-4.1 8.7-8.3 19.6-16.9 20.5-15.9c55.9-41 120.2-70 187.9-84.8 33.8-7.4 68.4-11.4 103.1-11.8 34.6-0.4 69.3 2.7 103.3 9.6 68 13.5 132.8 41.2 189.4 81.1 28.3 19.8 54.6 42.7 78.4 68.1 23.7 25.3 44.8 53 62.8 82.5 17.9 29.6 32.8 61 44.3 93.6 11.4 32.7 19.4 66.6 23.8 100.9 9 68.8 3.6 139.4-15.6 205.9-19.2 66.5-52.7 128.6-97.4 181.6zm-1470.6 188.5l-4.1 4.3c-35.4 35.4-74.6 67.4-116.8 94.9-42.2 27.5-87.2 50.7-134.2 68.9-93.9 36.4-195.2 53-295.5 48.7-100.5-4.2-200-29.7-290.4-74.3-45.2-22.3-88-49.3-127.5-80.4-39.6-31.1-75.7-66.1-108.1-104.5-64.7-76.9-113.7-167.6-141.5-264.4-28.1-96.6-35.8-198.9-22.8-298.5 6.5-49.9 18-99.1 34.7-146.6 16.7-47.5 38.4-93.3 64.5-136.3 26.2-43.1 56.8-83.3 91.1-119.9 34.3-36.6 72.3-69.8 113.6-98.7 41.1-29 85.4-53.6 131.7-73.4 46.3-19.8 94.6-34.8 144-44.6 98.6-19.7 201.1-18.4 299.3 3.2 49.2 10.8 97.2 26.7 143.1 47.4 45.9 20.7 89.7 46.3 130.3 76q15 11.5 29.8 23.1l14.3 12.3 7.2 6.1 3.5 3.1c1.2 1.1 2.4 2 3.6 3.2l14.7 14 7.3 7 3.7 3.5c1.1 1.2 2.6 2.5 3.3 3.3l20.7 22.6 83 90.5 134.9 147.1 46.5 50.6 30.5 33.3 46.4 50.6 30.6 33.3 46.4 50.7 30.5 33.3 46.5 50.6 251.4 274.1c5.1 4.7 10.1 9.4 15.1 14.2l18 15.4 18.8 14.5 9.7 6.7 4.8 3.4c1.6 1.1 3.2 2.3 4.9 3.3 26.3 17.2 54.4 31.6 83.8 43 58.6 22.7 122.2 33.2 185.3 30.5 63.2-2.6 125.5-18.7 181.9-46.5 28.1-13.9 54.9-30.8 79.7-50.2 24.7-19.5 47.7-41.7 68-65.9 20.3-24.1 38.1-50.3 53-78 14.8-27.7 26.9-56.9 35.6-87.2 17.5-60.5 22.4-124.8 14.2-187.4-4-31.3-11.3-62.2-21.7-91.9-10.4-29.7-24-58.2-40.3-85.1-16.4-26.9-35.5-52-57.2-75.1-21.6-23.1-45.6-44-71.4-62.1-51.4-36.2-110.4-61.4-172.3-73.8-30.9-6.2-62.5-9-94.1-8.7-31.5 0.4-63.1 4-93.9 10.8-61.6 13.5-120 39.8-170.8 77.1l-18.7 14.4-17.9 15.4q-3.7 3.7-7.5 7.2l-3.8 3.6-1.9 1.7c-0.7 0.7-1.2 1-2.2 2.1l-20.6 22.6-82.8 90.2-79.9 87.2 46.9 50.1 82.6-90.1 82.6-90.1 20.7-22.5c0.4-0.5 0.9-1.1 1.1-1.2l0.7-0.6 1.5-1.3 2.9-2.7q2.9-2.7 5.7-5.5c0.2-0.2 0.5-0.4 0.9-0.7l0.9-0.8 2-1.7 3.8-3.2 7.6-6.6q8-6.2 15.9-12.4c43.1-31.6 92.7-53.9 145.1-65.4 26.1-5.7 53-8.8 79.8-9.1 26.9-0.3 53.8 2 80.1 7.4 52.6 10.5 102.6 31.9 146.3 62.6 21.8 15.3 42.3 33.1 60.8 52.9 18.4 19.7 34.7 41 48.6 63.8 13.8 22.8 25.3 47 34.2 72.2 8.8 25.3 15 51.5 18.4 78.1 7 53.3 2.8 108.1-12.1 159.5-7.3 25.7-17.6 50.5-30.2 74-12.6 23.5-27.7 45.7-45 66.3-17.3 20.5-36.9 39.5-58 56.1-21 16.5-43.7 30.8-67.6 42.6-23.9 11.8-49.1 21.1-75 27.8-26 6.6-52.7 10.7-79.5 11.7-53.8 2.3-107.9-6.6-157.6-25.9-24.9-9.7-48.8-21.9-71.1-36.5-1.5-0.8-2.8-1.8-4.2-2.8l-4.1-2.9-8.2-5.7c-5.4-4-10.6-8.2-16-12.2-5.1-4.4-10.1-8.9-15.3-13.2-3.8-3.7-7.6-7.3-11.6-10.8l-254.4-277.3v-0.1l-46.4-50.6-30.6-33.3h0.1l-46.5-50.6-30.5-33.3-46.4-50.7-0.1 0.1-30.5-33.3-46.4-50.7v0.1l-132-143.9-82.9-90.4-20.8-22.6c-0.4-0.5-0.8-0.9-1.5-1.7l-2.1-1.9-4.1-4-8.2-7.9q-8.2-7.9-16.5-15.7-1-1-2-1.8l-1.9-1.7-3.9-3.4-7.8-6.7-15.7-13.4q-16.2-12.7-32.6-25.2c-44.4-32.6-92.3-60.6-142.6-83.3-50.2-22.6-102.8-40.1-156.5-51.9-107.5-23.6-219.6-25-327.5-3.5-53.9 10.8-106.8 27.2-157.5 48.8-50.7 21.7-99.2 48.7-144.2 80.4-45.1 31.7-86.7 67.9-124.1 107.9-37.5 39.9-71.1 84-99.7 131.1-28.6 47.1-52.3 97.3-70.6 149.2-18.2 52-30.9 105.9-38 160.4-14.2 109-5.8 220.8 24.9 326.6 30.6 105.8 84.1 205.2 155 289.3 35.4 42 74.8 80.2 118.1 114.2 43.2 34 90.1 63.6 139.6 88 98.9 48.8 207.8 76.7 317.6 81.3 109.8 4.7 220.5-13.4 323.3-53.3 51.4-20 100.7-45.3 146.9-75.4 46.1-30.2 89-65.1 127.7-103.8l6.1-6.4 168.8-184.1-46.9-50z"/>
			</g>
		</g>
	</g>
</svg>